<svg id="Layer_1" data-name="Layer 1" xmlns="http://www.w3.org/2000/svg" viewBox="0 0 337.93 78.23"><polygon points="47.02 40.8 70.52 27.23 47.02 13.57 47.02 40.8" style="fill:currentColor"/><polygon points="47.02 40.8 23.51 27.23 47.02 13.57 47.02 40.8" style="fill:currentColor"/><polygon points="70.52 0 47.02 13.57 70.52 27.23 70.52 0" style="fill:currentColor"/><polygon points="70.52 0 94.03 13.57 70.52 27.23 70.52 0" style="fill:currentColor"/><polygon points="23.51 0 0 13.57 23.51 27.23 23.51 0" style="fill:currentColor"/><polygon points="23.51 0 47.02 13.57 23.51 27.23 23.51 0" style="fill:currentColor"/><polygon points="47.02 78.23 70.52 64.66 47.02 51.01 47.02 78.23" style="fill:currentColor"/><polygon points="47.02 78.23 23.51 64.66 47.02 51.01 47.02 78.23" style="fill:currentColor"/><polygon points="70.52 37.44 47.02 51.01 70.52 64.66 70.52 37.44" style="fill:currentColor"/><polygon points="70.52 37.44 94.03 51.01 70.52 64.66 70.52 37.44" style="fill:currentColor"/><polygon points="23.51 37.44 0 51.01 23.51 64.66 23.51 37.44" style="fill:currentColor"/><polygon points="23.51 37.44 47.02 51.01 23.51 64.66 23.51 37.44" style="fill:currentColor"/><path d="M269.17,193.09c-.78,7.95-7,12.85-15.62,12.85-11.86,0-17.26-7.95-17.26-19.67,0-11.51,5.61-19.75,16.9-19.75,11.65,0,16.13,7.89,16.13,18.26v1.7H240.69C240.76,196.92,245.88,202,253,202c6.11,0,10.87-2.56,11.79-8.95Zm-4.26-10.44c-.28-7.53-4.47-12.22-11.5-12.22s-11.58,3.91-12.58,12.22Z" transform="translate(-122.78 -146.46)" style="fill:currentColor"/><path d="M279.36,152.67h4.26v52.56h-4.26Z" transform="translate(-122.78 -146.46)" style="fill:currentColor"/><path d="M318.12,199.13H318c-2.77,4.26-7.31,6.81-14.06,6.81-8.1,0-12-4.61-12-10.08,0-11.08,11.57-11.15,19.53-12.5,5.82-.92,6.68-1.28,6.68-4.05,0-5.11-3.06-8.88-9.74-8.88-6.17,0-9.23,2.35-10.22,8.95h-4.41c.86-8.31,5.61-12.86,14.78-12.86,8.59,0,13.85,4.2,13.85,13.85v24.86h-4.26Zm0-13.43c-9.59,2.56-21.95,1.14-21.95,9.59,0,4.12,3.48,6.75,8.31,6.75,7.95,0,13.64-4.83,13.64-12.43Z" transform="translate(-122.78 -146.46)" style="fill:currentColor"/><path d="M336.39,193.09c.71,6.75,4.83,8.95,11.15,8.95,5.18,0,8.66-2,8.66-6.75,0-11.15-22.87-2.84-22.87-18,0-6,4.48-10.8,12.79-10.8,7.95,0,13.14,4.2,13.56,12.86h-4.4c-.57-6.25-3.62-8.95-9.16-8.95-6.32,0-8.53,3.34-8.53,7,0,10.37,22.87,2.91,22.87,17.76,0,6.67-5.11,10.79-13.56,10.79-9.31,0-14.42-4.54-14.92-12.85Z" transform="translate(-122.78 -146.46)" style="fill:currentColor"/><path d="M370.93,171.07h-5.47v-3.83h5.47v-9.81h4.26v9.81h8.88v3.83h-8.88v25c0,4.19,2.06,6,5.19,6a18,18,0,0,0,3.69-.43v3.77a18.85,18.85,0,0,1-4.33.56c-4.83,0-8.81-2.84-8.81-9.23Z" transform="translate(-122.78 -146.46)" style="fill:currentColor"/><path d="M388.63,186.27c0-11.79,7.53-19.75,18.47-19.75s18.47,8,18.47,19.75S418,205.94,407.1,205.94,388.63,198.06,388.63,186.27Zm32.53,0c0-9.45-5.82-15.84-14.06-15.84S393,176.82,393,186.27,398.86,202,407.1,202,421.16,195.72,421.16,186.27Z" transform="translate(-122.78 -146.46)" style="fill:currentColor"/><path d="M436.63,193.09c.72,6.75,4.83,8.95,11.16,8.95,5.18,0,8.66-2,8.66-6.75,0-11.15-22.87-2.84-22.87-18,0-6,4.47-10.8,12.79-10.8,7.95,0,13.13,4.2,13.56,12.86h-4.4c-.57-6.25-3.63-8.95-9.16-8.95-6.33,0-8.53,3.34-8.53,7,0,10.37,22.87,2.91,22.87,17.76,0,6.67-5.11,10.79-13.56,10.79-9.31,0-14.42-4.54-14.92-12.85Z" transform="translate(-122.78 -146.46)" style="fill:currentColor"/></svg>